<!--?xml version="1.0" encoding="utf-8"?-->
<!-- Generator: Adobe Illustrator 15.1.0, SVG Export Plug-In . SVG Version: 6.00 Build 0)  -->

<svg version="1.1" id="_x32_" xmlns="http://www.w3.org/2000/svg" xmlns:xlink="http://www.w3.org/1999/xlink" x="0px" y="0px" width="512px" height="512px" viewBox="0 0 512 512" style="width: 256px; height: 256px; opacity: 1;" xml:space="preserve">
<style type="text/css">

	.st0{fill:#4B4B4B;}

</style>
<g>
	<path class="st0" d="M504.041,193.859c-14.703-57.156-117.75-108.953-248.047-108.953c-130.281,0-233.344,51.797-248.047,108.953
		C-2.975,227.594-1.49,272.891,5.447,299c18.375,78.391,113.594,128.094,250.547,128.094c136.938,0,232.172-49.703,250.547-128.094
		C513.494,272.891,514.979,227.594,504.041,193.859z M214.354,337.813c-58.125-1.266-109.766-17.5-140.094-33.625
		c-10.156-5.453-17.922-10.75-23.297-16.438c-2.984-3.313-5.609-6.75-6.406-12.078c-0.656-5.219,3.031-9.953,8.234-10.594
		c4.984-0.625,9.469,2.781,10.391,7.656l0.063-0.016l0.016,0.016l0.094,0.172c0.188,0.328,0.688,1.031,1.5,1.891
		c1.609,1.75,4.422,4.109,8.234,6.656c7.609,5.109,19.047,10.953,33.094,16.375c28.156,10.875,66.875,20.172,108.563,21.016
		c5.25,0.109,9.391,4.438,9.297,9.672C223.932,333.75,219.604,337.922,214.354,337.813z M255.994,295.906
		c-91.391,0-183.375-25.078-192.563-59.313c2.344-29.641,101.172-59.297,192.563-59.297s190.234,29.656,192.578,59.297
		C439.385,270.828,347.385,295.906,255.994,295.906z" style="fill: rgb(207, 171, 0);"></path>
</g>
</svg>
